<svg xmlns="http://www.w3.org/2000/svg" xmlns:xlink="http://www.w3.org/1999/xlink" width="41.393" height="44.748" viewBox="0 0 41.393 44.748">
  <defs>
    <linearGradient id="linear-gradient" x1="0.5" x2="0.5" y2="1" gradientUnits="objectBoundingBox">
      <stop offset="0" stop-color="#4eff9b"/>
      <stop offset="1" stop-color="#57d1ff"/>
    </linearGradient>
  </defs>
  <g id="Group_18" data-name="Group 18" transform="translate(-172.818 -73.068)">
    <g id="Group_17" data-name="Group 17" transform="translate(215.624 70.998) rotate(90)">
      <path id="Path_5" data-name="Path 5" d="M25.867,9.487,28.4,7.429a1.3,1.3,0,0,0-.657-2.3L13.073,1.468c-1.191-.3-2.312.613-2.015,1.637l3.606,12.628a1.72,1.72,0,0,0,2.679.668l2.105-1.708a18.084,18.084,0,0,1,1.5,5.337A18.122,18.122,0,0,1,19.3,30.046a21.223,21.223,0,0,1-5.589,7.1,1.229,1.229,0,0,0-.09,1.877L17,42.334a1.82,1.82,0,0,0,2.337.088,28.572,28.572,0,0,0,7.727-9.7A24.279,24.279,0,0,0,29.28,19.29a24.863,24.863,0,0,0-3.413-9.8" transform="translate(17.36 0.002)" fill="url(#linear-gradient)"/>
      <path id="Path_6" data-name="Path 6" d="M14.858,8.075l2.537-2.058a1.3,1.3,0,0,0-.657-2.3L2.063.057C.872-.239-.248.67.048,1.693L3.654,14.321a1.72,1.72,0,0,0,2.679.668l2.105-1.708a18.084,18.084,0,0,1,1.5,5.337A18.122,18.122,0,0,1,8.29,28.634a21.223,21.223,0,0,1-5.589,7.1,1.229,1.229,0,0,0-.09,1.877l3.38,3.312a1.82,1.82,0,0,0,2.337.088,28.572,28.572,0,0,0,7.727-9.7A24.279,24.279,0,0,0,18.27,17.879a24.863,24.863,0,0,0-3.413-9.8" transform="translate(20.52 42.806) rotate(180)" fill="url(#linear-gradient)"/>
    </g>
  </g>
</svg>
